<?xml version="1.0" encoding="CP950"?>
<svg xmlns="http://www.w3.org/2000/svg" xmlns:xlink="http://www.w3.org/1999/xlink" width="700px" height="432px" viewBox="0 0 700 432" version="1.1">
  <metadata xmlns:gridsvg="http://www.stat.auckland.ac.nz/~paul/R/gridSVG/">
    <gridsvg:generator name="gridSVG" version="1.7-1" time="2019-12-25 12:12:47"/>
    <gridsvg:argument name="name" value="sourcePieChart.svg"/>
    <gridsvg:argument name="exportCoords" value="none"/>
    <gridsvg:argument name="exportMappings" value="none"/>
    <gridsvg:argument name="exportJS" value="none"/>
    <gridsvg:argument name="res" value="96"/>
    <gridsvg:argument name="prefix" value=""/>
    <gridsvg:argument name="addClasses" value="TRUE"/>
    <gridsvg:argument name="indent" value="TRUE"/>
    <gridsvg:argument name="htmlWrapper" value="FALSE"/>
    <gridsvg:argument name="usePaths" value="vpPaths"/>
    <gridsvg:argument name="uniqueNames" value="TRUE"/>
    <gridsvg:separator name="id.sep" value="."/>
    <gridsvg:separator name="gPath.sep" value="::"/>
    <gridsvg:separator name="vpPath.sep" value="::"/>
  </metadata>
  <g transform="translate(0, 432) scale(1, -1)">
    <g id="gridSVG" fill="rgb(255,255,255)" stroke="rgb(0,0,0)" stroke-dasharray="none" stroke-width="1" font-size="16" font-family="Helvetica, Arial, FreeSans, Liberation Sans, Nimbus Sans L, sans-serif" opacity="1" stroke-linecap="round" stroke-linejoin="round" stroke-miterlimit="10" stroke-opacity="1" fill-opacity="1" font-weight="normal" font-style="normal">
      <g id="layout.1" class="viewport">
        <g id="layout.2" class="forcedgrob gtable gTree grob gDesc">
          <defs>
            <clipPath id="layout::background.1-11-12-1.1.clipPath">
              <rect x="0" y="40.61" width="700" height="350.78" fill="none" stroke="none"/>
            </clipPath>
          </defs>
          <g id="layout::background.1-11-12-1.1" clip-path="url(#layout::background.1-11-12-1.1.clipPath)" class="viewport">
            <g id="background.1-11-12-1.1" class="forcedgrob gTableChild rect grob gDesc">
              <rect id="background.1-11-12-1.1.1" x="0" y="40.61" width="700" height="350.78" transform="" stroke-width="1.42" stroke="rgb(255,255,255)" fill="rgb(255,255,255)" stroke-dasharray="none" stroke-opacity="1" fill-opacity="1"/>
            </g>
          </g>
          <defs>
            <clipPath id="layout::panel.7-5-7-5.1.clipPath">
              <rect x="10.96" y="51.57" width="332.51" height="332.51" fill="none" stroke="none"/>
            </clipPath>
          </defs>
          <g id="layout::panel.7-5-7-5.1" clip-path="url(#layout::panel.7-5-7-5.1.clipPath)" class="viewport">
            <g id="panel.7-5-7-5.1" class="forcedgrob gTableChild gTree grob gDesc">
              <g id="grill.gTree.3189.1" class="gTree grob gDesc">
                <g id="panel.background..rect.3185.1" class="rect grob gDesc">
                  <rect id="panel.background..rect.3185.1.1" x="10.96" y="51.57" width="332.51" height="332.51" transform="" stroke-width="1.42" stroke="none" fill="rgb(255,255,255)" stroke-dasharray="none" stroke-opacity="0" fill-opacity="1"/>
                </g>
              </g>
              <g id="bar.gTree.3179.1" class="gTree grob gDesc">
                <g id="geom_polygon.polygon.3173.1" class="polygon grob gDesc">
                  <polygon id="geom_polygon.polygon.3173.1.1" points="177.21,217.83 173.39,215.3 169.56,212.77 165.74,210.24 161.91,207.71 158.09,205.18 154.26,202.65 150.43,200.12 146.61,197.59 142.78,195.06 138.96,192.53 135.13,190 131.31,187.47 127.48,184.94 123.65,182.41 119.83,179.88 116,177.35 112.18,174.83 108.35,172.3 104.53,169.77 100.7,167.24 96.87,164.71 93.05,162.18 89.22,159.65 85.4,157.12 81.57,154.59 77.74,152.06 73.92,149.53 70.09,147 66.27,144.47 68.82,140.75 71.5,137.11 74.3,133.57 77.22,130.12 80.26,126.78 83.41,123.54 86.66,120.41 90.02,117.39 93.49,114.48 97.04,111.7 100.69,109.04 104.43,106.5 108.25,104.1 112.15,101.82 116.13,99.68 120.18,97.67 124.29,95.8 128.47,94.08 132.7,92.49 136.98,91.05 141.31,89.76 145.67,88.62 150.08,87.62 154.52,86.77 158.98,86.08 163.46,85.53 167.96,85.14 172.48,84.91 176.99,84.82 181.51,84.89 186.02,85.11 190.52,85.49 195.01,86.02 199.47,86.7 203.91,87.53 208.32,88.51 212.7,89.64 217.03,90.92 221.31,92.35 225.55,93.92 229.73,95.63 233.85,97.48 237.9,99.47 241.89,101.6 245.79,103.87 249.63,106.26 253.37,108.78 257.03,111.43 260.6,114.2 264.07,117.1 267.44,120.1 270.7,123.22 273.86,126.45 276.91,129.79 279.84,133.22 282.66,136.76 285.35,140.38 287.92,144.1 290.35,147.9 292.66,151.78 294.84,155.74 296.88,159.77 298.78,163.87 300.54,168.03 302.16,172.24 303.64,176.51 304.97,180.83 306.15,185.19 307.19,189.59 308.07,194.02 308.8,198.47 304.27,199.14 299.73,199.81 295.19,200.48 290.65,201.14 286.12,201.81 281.58,202.48 277.04,203.15 272.5,203.81 267.97,204.48 263.43,205.15 258.89,205.81 254.35,206.48 249.82,207.15 245.28,207.82 240.74,208.48 236.2,209.15 231.67,209.82 227.13,210.49 222.59,211.15 218.05,211.82 213.52,212.49 208.98,213.16 204.44,213.82 199.9,214.49 195.36,215.16 190.83,215.82 186.29,216.49 181.75,217.16 177.21,217.83 177.21,217.83" stroke="none" fill="rgb(117,112,179)" stroke-width="1.42" stroke-dasharray="none" stroke-opacity="0" fill-opacity="1"/>
                </g>
                <g id="geom_polygon.polygon.3175.1" class="polygon grob gDesc">
                  <polygon id="geom_polygon.polygon.3175.1.1" points="177.21,217.83 175.48,222.07 173.74,226.31 172,230.56 170.26,234.8 168.52,239.05 166.78,243.29 165.04,247.53 163.3,251.78 161.56,256.02 159.82,260.27 158.09,264.51 156.35,268.75 154.61,273 152.87,277.24 151.13,281.48 149.39,285.73 147.65,289.97 145.91,294.22 144.17,298.46 142.43,302.7 140.7,306.95 138.96,311.19 137.22,315.44 135.48,319.68 133.74,323.92 132,328.17 130.26,332.41 128.52,336.66 126.78,340.9 122.63,339.12 118.55,337.19 114.53,335.13 110.58,332.93 106.71,330.61 102.92,328.15 99.22,325.56 95.6,322.85 92.08,320.02 88.66,317.07 85.34,314 82.13,310.83 79.03,307.55 76.04,304.16 73.17,300.68 70.41,297.09 67.78,293.42 65.28,289.66 62.9,285.82 60.66,281.9 58.55,277.9 56.58,273.84 54.75,269.71 53.06,265.52 51.51,261.28 50.11,256.99 48.85,252.65 47.74,248.27 46.78,243.85 45.97,239.41 45.32,234.94 44.81,230.45 44.46,225.95 44.26,221.44 44.21,216.92 44.32,212.4 44.58,207.89 45,203.4 45.56,198.92 46.28,194.46 47.15,190.02 48.17,185.62 49.34,181.26 50.65,176.94 52.11,172.66 53.72,168.44 55.47,164.28 57.35,160.17 59.38,156.14 61.54,152.17 63.84,148.28 66.27,144.47 70.09,147 73.92,149.53 77.74,152.06 81.57,154.59 85.4,157.12 89.22,159.65 93.05,162.18 96.87,164.71 100.7,167.24 104.53,169.77 108.35,172.3 112.18,174.83 116,177.35 119.83,179.88 123.65,182.41 127.48,184.94 131.31,187.47 135.13,190 138.96,192.53 142.78,195.06 146.61,197.59 150.43,200.12 154.26,202.65 158.09,205.18 161.91,207.71 165.74,210.24 169.56,212.77 173.39,215.3 177.21,217.83 177.21,217.83" stroke="none" fill="rgb(217,95,2)" stroke-width="1.42" stroke-dasharray="none" stroke-opacity="0" fill-opacity="1"/>
                </g>
                <g id="geom_polygon.polygon.3177.1" class="polygon grob gDesc">
                  <polygon id="geom_polygon.polygon.3177.1.1" points="177.21,217.83 181.75,217.16 186.29,216.49 190.83,215.82 195.36,215.16 199.9,214.49 204.44,213.82 208.98,213.16 213.52,212.49 218.05,211.82 222.59,211.15 227.13,210.49 231.67,209.82 236.2,209.15 240.74,208.48 245.28,207.82 249.82,207.15 254.35,206.48 258.89,205.81 263.43,205.15 267.97,204.48 272.5,203.81 277.04,203.15 281.58,202.48 286.12,201.81 290.65,201.14 295.19,200.48 299.73,199.81 304.27,199.14 308.8,198.47 309.39,202.95 309.81,207.45 310.09,211.96 310.21,216.47 310.18,220.99 310,225.5 309.66,230.01 309.17,234.5 308.53,238.97 307.73,243.42 306.79,247.83 305.7,252.22 304.45,256.56 303.07,260.86 301.53,265.11 299.85,269.3 298.04,273.44 296.08,277.51 293.98,281.51 291.75,285.44 289.39,289.29 286.9,293.06 284.28,296.74 281.54,300.33 278.68,303.82 275.7,307.22 272.61,310.51 269.41,313.7 266.1,316.77 262.69,319.73 259.18,322.58 255.57,325.3 251.88,327.9 248.1,330.37 244.24,332.71 240.3,334.92 236.28,337 232.2,338.93 228.06,340.73 223.86,342.39 219.6,343.9 215.29,345.26 210.94,346.48 206.56,347.55 202.13,348.48 197.68,349.25 193.21,349.87 188.72,350.33 184.21,350.65 179.7,350.81 175.18,350.82 170.66,350.67 166.16,350.37 161.66,349.92 157.19,349.31 152.73,348.56 148.31,347.65 143.92,346.6 139.56,345.39 135.25,344.04 130.99,342.54 126.78,340.9 128.52,336.66 130.26,332.41 132,328.17 133.74,323.92 135.48,319.68 137.22,315.44 138.96,311.19 140.7,306.95 142.43,302.7 144.17,298.46 145.91,294.22 147.65,289.97 149.39,285.73 151.13,281.48 152.87,277.24 154.61,273 156.35,268.75 158.09,264.51 159.82,260.27 161.56,256.02 163.3,251.78 165.04,247.53 166.78,243.29 168.52,239.05 170.26,234.8 172,230.56 173.74,226.31 175.48,222.07 177.21,217.83 177.21,217.83" stroke="none" fill="rgb(27,158,119)" stroke-width="1.42" stroke-dasharray="none" stroke-opacity="0" fill-opacity="1"/>
                </g>
              </g>
              <g id="GRID.gTree.3180.1" class="gTree grob gDesc"/>
            </g>
          </g>
          <g id="layout::spacer.8-6-8-6.1" class="viewport"/>
          <g id="layout::spacer.8-4-8-4.1" class="viewport"/>
          <g id="layout::spacer.6-6-6-6.1" class="viewport"/>
          <g id="layout::spacer.6-4-6-4.1" class="viewport"/>
          <g id="layout::axis-t.6-5-6-5.1" class="viewport"/>
          <g id="layout::axis-l.7-4-7-4.1" class="viewport">
            <g id="layout::axis-l.7-4-7-4::GRID.VP.1103.1" class="viewport">
              <g id="axis-l.7-4-7-4.1" class="forcedgrob gTableChild absoluteGrob gTree grob gDesc">
                <g id="layout::axis-l.7-4-7-4::GRID.VP.1103::axis.1" class="viewport">
                  <g id="axis.1" class="forcedgrob gtable gTree grob gDesc">
                    <g id="layout::axis-l.7-4-7-4::GRID.VP.1103::axis::axis.1-1-1-1.1" class="viewport"/>
                    <g id="layout::axis-l.7-4-7-4::GRID.VP.1103::axis::axis.1-2-1-2.1" class="viewport"/>
                  </g>
                </g>
              </g>
            </g>
          </g>
          <g id="layout::axis-r.7-6-7-6.1" class="viewport"/>
          <g id="layout::axis-b.8-5-8-5.1" class="viewport">
            <g id="layout::axis-b.8-5-8-5::GRID.VP.1102.1" class="viewport">
              <g id="axis-b.8-5-8-5.1" class="forcedgrob gTableChild absoluteGrob gTree grob gDesc">
                <g id="layout::axis-b.8-5-8-5::GRID.VP.1102::axis.1" class="viewport">
                  <g id="axis.2" class="forcedgrob gtable gTree grob gDesc">
                    <g id="layout::axis-b.8-5-8-5::GRID.VP.1102::axis::axis.1-1-1-1.1" class="viewport"/>
                    <g id="layout::axis-b.8-5-8-5::GRID.VP.1102::axis::axis.2-1-2-1.1" class="viewport"/>
                  </g>
                </g>
              </g>
            </g>
          </g>
          <g id="layout::xlab-t.5-5-5-5.1" class="viewport"/>
          <g id="layout::xlab-b.9-5-9-5.1" class="viewport"/>
          <g id="layout::ylab-l.7-3-7-3.1" class="viewport"/>
          <g id="layout::ylab-r.7-7-7-7.1" class="viewport"/>
          <g id="layout::guide-box.7-9-7-9.1" class="viewport">
            <g id="layout::guide-box.7-9-7-9::GRID.VP.1117.1" class="viewport">
              <g id="layout::guide-box.7-9-7-9::GRID.VP.1117::guide-box.7-9-7-9.1" class="viewport">
                <g id="guide-box.7-9-7-9.1" class="forcedgrob gTableChild gtable gTree grob gDesc">
                  <g id="layout::guide-box.7-9-7-9::GRID.VP.1117::guide-box.7-9-7-9::legend.box.background.2-4-4-2.1" class="viewport"/>
                  <g id="layout::guide-box.7-9-7-9::GRID.VP.1117::guide-box.7-9-7-9::guides.3-3-3-3.1" class="viewport">
                    <g id="layout::guide-box.7-9-7-9::GRID.VP.1117::guide-box.7-9-7-9::guides.3-3-3-3::GRID.VP.1116.1" class="viewport">
                      <g id="layout::guide-box.7-9-7-9::GRID.VP.1117::guide-box.7-9-7-9::guides.3-3-3-3::GRID.VP.1116::guides.3-3-3-3.1" class="viewport">
                        <g id="guides.3-3-3-3.1" class="forcedgrob gTableChild gtable gTree grob gDesc">
                          <g id="layout::guide-box.7-9-7-9::GRID.VP.1117::guide-box.7-9-7-9::guides.3-3-3-3::GRID.VP.1116::guides.3-3-3-3::background.1-6-7-1.1" class="viewport">
                            <g id="background.1-6-7-1.1" class="forcedgrob gTableChild rect grob gDesc">
                              <rect id="background.1-6-7-1.1.1" x="358.08" y="101.72" width="334.61" height="232.22" transform="" stroke-width="1.42" stroke="none" fill="rgb(255,255,255)" stroke-dasharray="none" stroke-opacity="0" fill-opacity="1"/>
                            </g>
                          </g>
                          <g id="layout::guide-box.7-9-7-9::GRID.VP.1117::guide-box.7-9-7-9::guides.3-3-3-3::GRID.VP.1116::guides.3-3-3-3::title.2-5-2-2.1" class="viewport">
                            <g id="layout::guide-box.7-9-7-9::GRID.VP.1117::guide-box.7-9-7-9::guides.3-3-3-3::GRID.VP.1116::guides.3-3-3-3::title.2-5-2-2::GRID.VP.1112.1" class="viewport">
                              <g id="title.2-5-2-2.1" class="forcedgrob gTableChild gTree grob gDesc">
                                <g id="layout::guide-box.7-9-7-9::GRID.VP.1117::guide-box.7-9-7-9::guides.3-3-3-3::GRID.VP.1116::guides.3-3-3-3::title.2-5-2-2::GRID.VP.1112::GRID.VP.1104.1" font-size="53.33" stroke="rgb(0,0,0)" font-family="Helvetica, Arial, FreeSans, Liberation Sans, Nimbus Sans L, sans-serif" stroke-opacity="1" font-weight="bold" font-style="normal" class="viewport">
                                  <g id="layout::guide-box.7-9-7-9::GRID.VP.1117::guide-box.7-9-7-9::guides.3-3-3-3::GRID.VP.1116::guides.3-3-3-3::title.2-5-2-2::GRID.VP.1112::GRID.VP.1104::GRID.VP.1105.1" class="viewport">
                                    <g id="guide.title.titleGrob.3204.1" class="titleGrob gTree grob gDesc">
                                      <g id="GRID.text.3202.1" class="text grob gDesc">
                                        <g id="GRID.text.3202.1.1" transform="translate(365.39, 302.75)" stroke-width="0.1">
                                          <g id="GRID.text.3202.1.1.scale" transform="scale(1, -1)">
                                            <text x="0" y="0" id="GRID.text.3202.1.1.text" text-anchor="start" font-size="53.33" stroke="rgb(0,0,0)" font-family="Helvetica, Arial, FreeSans, Liberation Sans, Nimbus Sans L, sans-serif" fill="rgb(0,0,0)" stroke-opacity="1" fill-opacity="1" font-weight="bold" font-style="normal">
                                              <tspan id="GRID.text.3202.1.1.tspan.1" dy="13.76" x="0">累計人氣來源</tspan>
                                            </text>
                                          </g>
                                        </g>
                                      </g>
                                    </g>
                                  </g>
                                </g>
                              </g>
                            </g>
                          </g>
                          <g id="layout::guide-box.7-9-7-9::GRID.VP.1117::guide-box.7-9-7-9::guides.3-3-3-3::GRID.VP.1116::guides.3-3-3-3::key-3-1-bg.4-2-4-2.1" class="viewport"/>
                          <g id="layout::guide-box.7-9-7-9::GRID.VP.1117::guide-box.7-9-7-9::guides.3-3-3-3::GRID.VP.1116::guides.3-3-3-3::key-3-1-1.4-2-4-2.1" class="viewport">
                            <g id="key-3-1-1.4-2-4-2.1" class="forcedgrob gTableChild rect grob gDesc">
                              <rect id="key-3-1-1.4-2-4-2.1.1" x="366.33" y="205.49" width="21.15" height="45.87" transform="" stroke="none" fill="rgb(27,158,119)" stroke-dasharray="none" stroke-width="1.42" stroke-linejoin="miter" stroke-linecap="square" stroke-opacity="0" fill-opacity="1"/>
                            </g>
                          </g>
                          <g id="layout::guide-box.7-9-7-9::GRID.VP.1117::guide-box.7-9-7-9::guides.3-3-3-3::GRID.VP.1116::guides.3-3-3-3::key-4-1-bg.5-2-5-2.1" class="viewport"/>
                          <g id="layout::guide-box.7-9-7-9::GRID.VP.1117::guide-box.7-9-7-9::guides.3-3-3-3::GRID.VP.1116::guides.3-3-3-3::key-4-1-1.5-2-5-2.1" class="viewport">
                            <g id="key-4-1-1.5-2-5-2.1" class="forcedgrob gTableChild rect grob gDesc">
                              <rect id="key-4-1-1.5-2-5-2.1.1" x="366.33" y="157.73" width="21.15" height="45.87" transform="" stroke="none" fill="rgb(217,95,2)" stroke-dasharray="none" stroke-width="1.42" stroke-linejoin="miter" stroke-linecap="square" stroke-opacity="0" fill-opacity="1"/>
                            </g>
                          </g>
                          <g id="layout::guide-box.7-9-7-9::GRID.VP.1117::guide-box.7-9-7-9::guides.3-3-3-3::GRID.VP.1116::guides.3-3-3-3::key-5-1-bg.6-2-6-2.1" class="viewport"/>
                          <g id="layout::guide-box.7-9-7-9::GRID.VP.1117::guide-box.7-9-7-9::guides.3-3-3-3::GRID.VP.1116::guides.3-3-3-3::key-5-1-1.6-2-6-2.1" class="viewport">
                            <g id="key-5-1-1.6-2-6-2.1" class="forcedgrob gTableChild rect grob gDesc">
                              <rect id="key-5-1-1.6-2-6-2.1.1" x="366.33" y="109.97" width="21.15" height="45.87" transform="" stroke="none" fill="rgb(117,112,179)" stroke-dasharray="none" stroke-width="1.42" stroke-linejoin="miter" stroke-linecap="square" stroke-opacity="0" fill-opacity="1"/>
                            </g>
                          </g>
                          <g id="layout::guide-box.7-9-7-9::GRID.VP.1117::guide-box.7-9-7-9::guides.3-3-3-3::GRID.VP.1116::guides.3-3-3-3::label-3-3.4-4-4-4.1" class="viewport">
                            <g id="layout::guide-box.7-9-7-9::GRID.VP.1117::guide-box.7-9-7-9::guides.3-3-3-3::GRID.VP.1116::guides.3-3-3-3::label-3-3.4-4-4-4::GRID.VP.1113.1" class="viewport">
                              <g id="label-3-3.4-4-4-4.1" class="forcedgrob gTableChild gTree grob gDesc">
                                <g id="layout::guide-box.7-9-7-9::GRID.VP.1117::guide-box.7-9-7-9::guides.3-3-3-3::GRID.VP.1116::guides.3-3-3-3::label-3-3.4-4-4-4::GRID.VP.1113::GRID.VP.1106.1" font-size="53.33" stroke="rgb(0,0,0)" font-family="Helvetica, Arial, FreeSans, Liberation Sans, Nimbus Sans L, sans-serif" stroke-opacity="1" font-weight="bold" font-style="normal" class="viewport">
                                  <g id="layout::guide-box.7-9-7-9::GRID.VP.1117::guide-box.7-9-7-9::guides.3-3-3-3::GRID.VP.1116::guides.3-3-3-3::label-3-3.4-4-4-4::GRID.VP.1113::GRID.VP.1106::GRID.VP.1107.1" class="viewport">
                                    <g id="guide.label.titleGrob.3207.1" class="titleGrob gTree grob gDesc">
                                      <g id="GRID.text.3205.1" class="text grob gDesc">
                                        <g id="GRID.text.3205.1.1" transform="translate(415, 228.42)" stroke-width="0.1">
                                          <g id="GRID.text.3205.1.1.scale" transform="scale(1, -1)">
                                            <text x="0" y="0" id="GRID.text.3205.1.1.text" text-anchor="start" font-size="53.33" stroke="rgb(0,0,0)" font-family="Helvetica, Arial, FreeSans, Liberation Sans, Nimbus Sans L, sans-serif" fill="rgb(0,0,0)" stroke-opacity="1" fill-opacity="1" font-weight="bold" font-style="normal">
                                              <tspan id="GRID.text.3205.1.1.tspan.1" dy="13.76" x="0">facebook</tspan>
                                            </text>
                                          </g>
                                        </g>
                                      </g>
                                    </g>
                                  </g>
                                </g>
                              </g>
                            </g>
                          </g>
                          <g id="layout::guide-box.7-9-7-9::GRID.VP.1117::guide-box.7-9-7-9::guides.3-3-3-3::GRID.VP.1116::guides.3-3-3-3::label-4-3.5-4-5-4.1" class="viewport">
                            <g id="layout::guide-box.7-9-7-9::GRID.VP.1117::guide-box.7-9-7-9::guides.3-3-3-3::GRID.VP.1116::guides.3-3-3-3::label-4-3.5-4-5-4::GRID.VP.1114.1" class="viewport">
                              <g id="label-4-3.5-4-5-4.1" class="forcedgrob gTableChild gTree grob gDesc">
                                <g id="layout::guide-box.7-9-7-9::GRID.VP.1117::guide-box.7-9-7-9::guides.3-3-3-3::GRID.VP.1116::guides.3-3-3-3::label-4-3.5-4-5-4::GRID.VP.1114::GRID.VP.1108.1" font-size="53.33" stroke="rgb(0,0,0)" font-family="Helvetica, Arial, FreeSans, Liberation Sans, Nimbus Sans L, sans-serif" stroke-opacity="1" font-weight="bold" font-style="normal" class="viewport">
                                  <g id="layout::guide-box.7-9-7-9::GRID.VP.1117::guide-box.7-9-7-9::guides.3-3-3-3::GRID.VP.1116::guides.3-3-3-3::label-4-3.5-4-5-4::GRID.VP.1114::GRID.VP.1108::GRID.VP.1109.1" class="viewport">
                                    <g id="guide.label.titleGrob.3210.1" class="titleGrob gTree grob gDesc">
                                      <g id="GRID.text.3208.1" class="text grob gDesc">
                                        <g id="GRID.text.3208.1.1" transform="translate(415, 180.66)" stroke-width="0.1">
                                          <g id="GRID.text.3208.1.1.scale" transform="scale(1, -1)">
                                            <text x="0" y="0" id="GRID.text.3208.1.1.text" text-anchor="start" font-size="53.33" stroke="rgb(0,0,0)" font-family="Helvetica, Arial, FreeSans, Liberation Sans, Nimbus Sans L, sans-serif" fill="rgb(0,0,0)" stroke-opacity="1" fill-opacity="1" font-weight="bold" font-style="normal">
                                              <tspan id="GRID.text.3208.1.1.tspan.1" dy="13.76" x="0">poster</tspan>
                                            </text>
                                          </g>
                                        </g>
                                      </g>
                                    </g>
                                  </g>
                                </g>
                              </g>
                            </g>
                          </g>
                          <g id="layout::guide-box.7-9-7-9::GRID.VP.1117::guide-box.7-9-7-9::guides.3-3-3-3::GRID.VP.1116::guides.3-3-3-3::label-5-3.6-4-6-4.1" class="viewport">
                            <g id="layout::guide-box.7-9-7-9::GRID.VP.1117::guide-box.7-9-7-9::guides.3-3-3-3::GRID.VP.1116::guides.3-3-3-3::label-5-3.6-4-6-4::GRID.VP.1115.1" class="viewport">
                              <g id="label-5-3.6-4-6-4.1" class="forcedgrob gTableChild gTree grob gDesc">
                                <g id="layout::guide-box.7-9-7-9::GRID.VP.1117::guide-box.7-9-7-9::guides.3-3-3-3::GRID.VP.1116::guides.3-3-3-3::label-5-3.6-4-6-4::GRID.VP.1115::GRID.VP.1110.1" font-size="53.33" stroke="rgb(0,0,0)" font-family="Helvetica, Arial, FreeSans, Liberation Sans, Nimbus Sans L, sans-serif" stroke-opacity="1" font-weight="bold" font-style="normal" class="viewport">
                                  <g id="layout::guide-box.7-9-7-9::GRID.VP.1117::guide-box.7-9-7-9::guides.3-3-3-3::GRID.VP.1116::guides.3-3-3-3::label-5-3.6-4-6-4::GRID.VP.1115::GRID.VP.1110::GRID.VP.1111.1" class="viewport">
                                    <g id="guide.label.titleGrob.3213.1" class="titleGrob gTree grob gDesc">
                                      <g id="GRID.text.3211.1" class="text grob gDesc">
                                        <g id="GRID.text.3211.1.1" transform="translate(415, 132.9)" stroke-width="0.1">
                                          <g id="GRID.text.3211.1.1.scale" transform="scale(1, -1)">
                                            <text x="0" y="0" id="GRID.text.3211.1.1.text" text-anchor="start" font-size="53.33" stroke="rgb(0,0,0)" font-family="Helvetica, Arial, FreeSans, Liberation Sans, Nimbus Sans L, sans-serif" fill="rgb(0,0,0)" stroke-opacity="1" fill-opacity="1" font-weight="bold" font-style="normal">
                                              <tspan id="GRID.text.3211.1.1.tspan.1" dy="13.76" x="0">website</tspan>
                                            </text>
                                          </g>
                                        </g>
                                      </g>
                                    </g>
                                  </g>
                                </g>
                              </g>
                            </g>
                          </g>
                        </g>
                      </g>
                    </g>
                  </g>
                </g>
              </g>
            </g>
          </g>
          <g id="layout::subtitle.4-5-4-5.1" class="viewport"/>
          <g id="layout::title.3-5-3-5.1" class="viewport"/>
          <g id="layout::caption.10-5-10-5.1" class="viewport"/>
          <g id="layout::tag.2-2-2-2.1" class="viewport"/>
        </g>
      </g>
    </g>
  </g>
</svg>